<?xml version="1.0" encoding="utf-8"?>
<!-- Generator: Adobe Illustrator 20.1.0, SVG Export Plug-In . SVG Version: 6.00 Build 0)  -->
<svg version="1.1" id="Layer_1" xmlns="http://www.w3.org/2000/svg" xmlns:xlink="http://www.w3.org/1999/xlink" x="0px" y="0px"
	 viewBox="0 0 59.3 111.2" style="enable-background:new 0 0 59.3 111.2;" xml:space="preserve">
<style type="text/css">
	.st0{fill:#0E0D0D;}
</style>
<g>
	<path class="st0" d="M20.6,104.3l0.8-0.1c0,0.1-0.7,0.8-0.7,0.9c-0.5,0.6-0.9,0.8-1.4,1.2c-1.5,1.5-3,3-4.7,4.6
		c-0.1,0.1-0.2,0.1-0.3,0.1c-2.2,0-4.6-0.2-7,0.1c-2.4,0.2-4.3-1.5-6.6-1.1c-0.2,0-0.5-0.1-0.6-0.3c-0.7-3,1.6-5.4,0.9-7.7
		c0-0.1,0-0.3,0-0.4c2.2-3.6,2.1-7.8,4.8-11.1C6.1,90.4,6,90.2,5.9,90c-2-1.9-0.5-4.8-1.7-7.2c-1.1-2.4-1.8-5.3-2.1-8.1
		C1.6,71.2,2,67.7,2,64.2c0-1.5,0.2-2.8,0.9-4.1c0.6-1.2-0.5-2.8,0.7-4.2c0.9-1.1,0.2-2.5,0.3-3.8c0.1-1.7,0-3.5,0-5.3
		c0-0.2,0.1-0.3,0.3-0.4c1.5-0.7,2-2.4,2.5-3.6c2.1-5.5,6.4-9.2,10.3-13.2c0.7-0.7,1.5-0.3,2.3-0.4c0.1,0,0.2-0.1,0.2-0.1l3.2-3.3
		c0.1-0.1,0.1-0.2,0.1-0.3v-3.4c0-0.1,0-0.2-0.1-0.3c-4.4-4.4-3.1-9.6-1.6-15.1c0,0,0-0.1,0.1-0.1c0.9-1.5,3.3-2.3,3.8-4.7
		c0-0.1,0-0.2,0.1-0.2c0.5-0.5,1.3,0,1.7-0.3c3.6-2.4,6.8-0.2,9.6,1.3c2.2,1.2,3.2,4.1,3.5,6.9c0.2,1.9-0.3,4.5,0.2,6.7
		c0.4,1.9-0.4,2.7-1.1,4.2c-0.9,1.8-1.4,3.1-1,5.4c0,0.1,0.1,0.2,0.2,0.3c2.2,1.6,4.5,3.2,7.2,4.3c0.1,0.1,0.2,0.2,0.3,0.3
		c0.4,1.6,1.6,2.6,2.8,3.5c3.9,2.9,4.9,7.7,7.3,11.5c0.5,0.7,0.4,1.8-0.4,2.7c-0.8,0.9,0.5,1.5,0.7,2.4c0.8,4,1.2,8,2.6,11.9
		c0.7,2,1,4.6-0.1,6.2c-1,1.6,0.2,3.6-1.4,4.7c-0.1,0.1-0.2,0.2-0.2,0.4c0,4.6-3.4,7.7-4.8,11.7c-1,3.5,0.4,6.5,2.1,9.4
		c2.8,4.8,3.8,10,3.6,15.6c0,0.2-0.2,0.4-0.5,0.4H43.4c-0.2,0-0.3-0.1-0.4-0.2c-2.1-3.9-4.9-7.5-10.6-9.7c0,0-0.1,0-0.1,0
		c-3.1-0.7-6.9,0.8-10.6,3c-0.4,0.2-1.2,1.4-1.2,1.1l0.5-4.3c0-0.1,0-0.2-0.1-0.3c-2-2.4-3.2-4.6-3.8-7.5c0-0.1,0-0.3,0.1-0.4
		l1.5-1.8c0.2-0.2,0.1-0.4,0-0.6l-0.9-0.9c-0.1-0.1-0.2-0.1-0.3-0.1h-4.8c-0.1,0-0.2,0-0.3,0.1L10.6,91c-0.1,0.1-0.2,0.1-0.3,0.1
		c-0.6,0-1,0.3-1.6,0.3c-0.1,0-0.5-0.1-0.3-0.3c-0.1,3.9,2.4,6.5,3.9,9.8c0.1,0.2,0.2,0.3,0.4,0.3h4.7c0.2,0,0.4,0.2,0.4,0.4
		C18.5,103.1,18.5,104,20.6,104.3z M48.5,90c-0.8-1.9-2.2-3.1-4.3-3.8c0,0-0.1,0-0.2,0h-4.4c-0.4,0-0.6,0.5-0.3,0.8
		c1,1,2,1.9,1.5,3.6c0,0.1-0.1,0.1-0.1,0.2c-1.4,1.4-3,2.9-4.5,4.4c-0.1,0.1-0.1,0.2-0.1,0.3c-0.1,0.8-0.3,1.6,0,2.2
		c0,0.1,0.1,0.2,0.3,0.2c2.5,1,4.6-1.4,6.8-0.9C45.6,93.9,46.1,93.2,48.5,90z M11.7,72.7c0.7-4,1.7-8,3.2-11.7
		c0.1-0.2,0-0.4-0.1-0.5c-0.7-0.6-1.1-1.4-2.2-1.3c-0.2,0-0.4,0.2-0.5,0.4c-0.1,1.8-0.6,3.5-2,4.9C10,64.6,10,64.7,10,64.8
		c0.1,2.6-0.2,5.2,0.1,7.9c0,0.2,0.3,0.4,0.5,0.4l0.7-0.1C11.5,73,11.7,72.9,11.7,72.7z M47.9,62.5c0,2.7-1,9.7,0.6,11.6
		c0.2,0.3,1.4-4.5,1.4-4.8c0.5-3.9,1.4-4.9-1.2-7.1C48.4,61.9,47.9,62.1,47.9,62.5z M48.5,74.1"/>
</g>
</svg>
